<svg width="35" height="35" viewBox="0 0 35 35" fill="none" xmlns="http://www.w3.org/2000/svg">
<path d="M24.6126 21.875L30.625 24.7917C30.625 24.7917 31.3542 21.875 31.3542 17.5C31.3542 13.125 30.625 10.2083 30.625 10.2083L24.6126 13.125M24.6126 21.875C24.7243 20.5616 24.7917 19.0645 24.7917 17.5C24.7917 15.9355 24.7243 14.4384 24.6126 13.125M24.6126 21.875C24.4005 24.3704 24.029 26.2025 23.6574 26.574C23.0902 27.1412 19.1204 27.7083 14.5833 27.7083C10.0463 27.7083 6.07639 27.1412 5.50926 26.574C4.94213 26.0069 4.375 22.037 4.375 17.5C4.375 12.963 4.94213 8.99306 5.50926 8.42593C6.07639 7.8588 10.0463 7.29167 14.5833 7.29167C19.1204 7.29167 23.0902 7.8588 23.6574 8.42593C24.029 8.79748 24.4005 10.6297 24.6126 13.125" stroke="#7C7CEB" stroke-width="2" stroke-linecap="round" stroke-linejoin="round"/>
</svg>
