<svg width="36" height="36" viewBox="0 0 36 36" fill="none" xmlns="http://www.w3.org/2000/svg">
<path d="M31.5 19.5C31.5 15.5 30.75 12 30 11.5C29.5194 11.1795 27.1902 10.8591 24 10.6703C22.2125 10.5645 25.5 7.5 18 7.5C10.5 7.5 13.7875 10.5645 12 10.6703C8.80974 10.8591 6.48068 11.1795 6 11.5C5.25 12 4.5 15.5 4.5 19.5C4.5 23.5001 5.25 27 6 27.4999C6.75 28 12 28.5 18 28.5C24 28.5 29.25 28 30 27.4999C30.75 27 31.5 23.5001 31.5 19.5Z" stroke="#7C7CEB" stroke-width="2" stroke-linecap="round" stroke-linejoin="round"/>
<path d="M18 24C20.4854 24 22.5 21.9854 22.5 19.5C22.5 17.0146 20.4854 15 18 15C15.5146 15 13.5 17.0146 13.5 19.5C13.5 21.9854 15.5146 24 18 24Z" stroke="#7C7CEB" stroke-width="2" stroke-linecap="round" stroke-linejoin="round"/>
</svg>
