<svg width="33" height="33" viewBox="0 0 33 33" fill="none" xmlns="http://www.w3.org/2000/svg">
<path d="M17.875 3.4375V6.875C17.875 10.1159 17.875 11.7364 18.8818 12.7432C19.8887 13.75 21.5091 13.75 24.75 13.75H30.25" stroke="#7C7CEB" stroke-width="2"/>
<path d="M19.2554 29.2188H13.7536V31.2812H19.2554V29.2188ZM3.78124 16.4171V13.75H1.71874V16.4171H3.78124ZM20.4816 6.3404L25.9267 11.2394L27.3061 9.70611L21.8611 4.80712L20.4816 6.3404ZM25.9267 11.2394C27.7882 12.9143 28.4753 13.5604 28.841 14.3815L30.7251 13.5422C30.1392 12.2269 29.0323 11.2591 27.3061 9.70611L25.9267 11.2394ZM13.7945 3.78125C15.9702 3.78125 16.7914 3.79716 17.5233 4.07792L18.2619 2.15225C17.0904 1.70284 15.814 1.71875 13.7945 1.71875V3.78125ZM21.8611 4.80712C20.3673 3.46319 19.4334 2.60162 18.2619 2.15225L17.5233 4.07792C18.2553 4.35874 18.8727 4.8929 20.4816 6.3404L21.8611 4.80712ZM13.7536 29.2188C11.1309 29.2188 9.26755 29.2166 7.85399 29.0265C6.47007 28.8406 5.67268 28.4918 5.09052 27.9097L3.63234 29.3684C4.66163 30.3974 5.96675 30.854 7.57925 31.0707C9.16213 31.2835 11.1892 31.2812 13.7536 31.2812V29.2188ZM19.2554 31.2812C21.8199 31.2812 23.8469 31.2835 25.4297 31.0707C27.0423 30.854 28.3474 30.3974 29.3766 29.3684L27.9184 27.9097C27.3362 28.4918 26.5389 28.8406 25.1549 29.0265C23.7414 29.2166 21.8782 29.2188 19.2554 29.2188V31.2812ZM3.78124 13.75C3.78124 11.1281 3.78343 9.26548 3.97347 7.85246C4.15952 6.46916 4.5084 5.67216 5.09052 5.09024L3.63234 3.6316C2.60302 4.66058 2.14619 5.96541 1.92938 7.57754C1.71656 9.15999 1.71874 11.1864 1.71874 13.75H3.78124ZM13.7945 1.71875C11.2164 1.71875 9.17945 1.71658 7.59012 1.92922C5.97192 2.14573 4.66243 2.60184 3.63234 3.6316L5.09052 5.09024C5.67188 4.50907 6.47172 4.15973 7.86362 3.9735C9.28436 3.78342 11.1583 3.78125 13.7945 3.78125V1.71875ZM24.5783 18.5366C26.3524 19.7192 28.6638 19.7192 30.438 18.5366L29.2941 16.8204C28.2127 17.5411 26.8036 17.5411 25.7221 16.8204L24.5783 18.5366ZM13.9325 18.5366C14.6571 18.0539 15.601 18.0539 16.3255 18.5366L17.4694 16.8204C16.0522 15.8759 14.2059 15.8759 12.7887 16.8204L13.9325 18.5366ZM8.07287 18.5366C9.84704 19.7192 12.1583 19.7192 13.9325 18.5366L12.7887 16.8204C11.7072 17.5411 10.2982 17.5411 9.21669 16.8204L8.07287 18.5366ZM5.67982 18.5366C6.40436 18.0539 7.34832 18.0539 8.07287 18.5366L9.21669 16.8204C7.79946 15.8759 5.95322 15.8759 4.53601 16.8204L5.67982 18.5366ZM24.5783 24.0366C26.3524 25.2191 28.6638 25.2191 30.438 24.0366L29.2941 22.3204C28.2127 23.0411 26.8036 23.0411 25.7221 22.3204L24.5783 24.0366ZM22.1852 24.0366C22.9097 23.5539 23.8538 23.5539 24.5783 24.0366L25.7221 22.3204C24.3049 21.3759 22.4586 21.3759 21.0413 22.3204L22.1852 24.0366ZM16.3255 24.0366C18.0998 25.2191 20.411 25.2191 22.1852 24.0366L21.0413 22.3204C19.9599 23.0411 18.5509 23.0411 17.4694 22.3204L16.3255 24.0366ZM13.9325 24.0366C14.6571 23.5539 15.601 23.5539 16.3255 24.0366L17.4694 22.3204C16.0522 21.3759 14.2059 21.3759 12.7887 22.3204L13.9325 24.0366ZM22.1852 18.5366C22.9097 18.0539 23.8538 18.0539 24.5783 18.5366L25.7221 16.8204C24.3049 15.8759 22.4586 15.8759 21.0413 16.8204L22.1852 18.5366ZM8.07287 24.0366C9.84704 25.2191 12.1583 25.2191 13.9325 24.0366L12.7887 22.3204C11.7072 23.0411 10.2982 23.0411 9.21669 22.3204L8.07287 24.0366ZM16.3255 18.5366C18.0998 19.7192 20.411 19.7192 22.1852 18.5366L21.0413 16.8204C19.9599 17.5411 18.5509 17.5411 17.4694 16.8204L16.3255 18.5366ZM5.67982 24.0366C6.40436 23.5539 7.34832 23.5539 8.07287 24.0366L9.21669 22.3204C7.79946 21.3759 5.95322 21.3759 4.53601 22.3204L5.67982 24.0366ZM4.81879 24.6106L5.67982 24.0366L4.53601 22.3204L3.67497 22.8943L4.81879 24.6106ZM2.12947 26.5221C2.39755 27.6467 2.85273 28.589 3.63234 29.3684L5.09052 27.9097C4.64296 27.4623 4.33823 26.8932 4.13576 26.0439L2.12947 26.5221ZM29.1807 23.3292C29.0744 25.893 28.7269 27.1017 27.9184 27.9097L29.3766 29.3684C30.7923 27.9532 31.1341 26.0033 31.2414 23.4146L29.1807 23.3292ZM31.281 16.9309C31.2557 15.566 31.1644 14.5282 30.7251 13.5422L28.841 14.3815C29.0987 14.96 29.1941 15.6347 29.2187 16.9691L31.281 16.9309ZM30.438 18.5366C30.9687 18.183 31.2929 17.5809 31.281 16.9309L29.2187 16.9691C29.2175 16.9037 29.2498 16.8499 29.2941 16.8204L30.438 18.5366ZM3.67497 22.8943C3.34724 23.1126 3.02477 23.3255 2.7726 23.5418C2.49398 23.7808 2.24335 24.0699 2.08497 24.4728L4.0045 25.2274C4.0075 25.2197 4.01025 25.2141 4.01891 25.2028C4.0301 25.1882 4.05635 25.158 4.11535 25.1074C4.25074 24.9912 4.45036 24.856 4.81879 24.6106L3.67497 22.8943ZM4.13576 26.0439C4.0477 25.6744 4.00746 25.4959 3.99457 25.3612C3.98601 25.2715 3.99475 25.2522 4.0045 25.2274L2.08497 24.4728C1.78599 25.2333 1.98635 25.9216 2.12947 26.5221L4.13576 26.0439ZM30.438 24.0366C29.8918 24.4006 29.153 23.9954 29.1807 23.3292L31.2414 23.4146C31.284 22.3857 30.1423 21.7551 29.2941 22.3204L30.438 24.0366ZM1.71874 16.4171C1.71874 16.6081 1.71698 16.7984 1.73351 16.9469L3.78335 16.7188C3.78474 16.7311 3.7831 16.7237 3.78216 16.6651C3.78127 16.6092 3.78124 16.5338 3.78124 16.4171H1.71874ZM4.53601 16.8204C4.43882 16.8851 4.37612 16.9269 4.32904 16.9572C4.27976 16.9889 4.2726 16.9918 4.28365 16.9861L5.23071 18.8182C5.36339 18.7496 5.52077 18.6427 5.67982 18.5366L4.53601 16.8204ZM1.73351 16.9469C1.92024 18.6248 3.73155 19.5932 5.23071 18.8182L4.28365 16.9861C4.06877 17.0972 3.80998 16.958 3.78335 16.7188L1.73351 16.9469Z" fill="#7C7CEB"/>
</svg>
