<svg width="144" height="144" viewBox="0 0 144 144" fill="none" xmlns="http://www.w3.org/2000/svg">
<path d="M72.0001 99V58.5M72.0001 58.5L90.0001 76.5M72.0001 58.5L54.0001 76.5M40.5001 117C34.0767 117.007 27.8612 114.724 22.9698 110.56C18.0785 106.397 14.8318 100.626 13.8127 94.2835C12.7936 87.9415 14.069 81.4439 17.4098 75.9575C20.7505 70.4712 25.9378 66.3557 32.0401 64.35C30.4723 56.317 32.0926 47.9892 36.558 41.1301C41.0233 34.271 47.9831 29.4192 55.9634 27.6021C63.9436 25.785 72.3179 27.1454 79.3126 31.3951C86.3074 35.6448 91.3735 42.4501 93.4381 50.37C96.6301 49.3319 100.049 49.2069 103.308 50.0094C106.567 50.8118 109.537 52.5096 111.883 54.911C114.228 57.3125 115.855 60.3218 116.58 63.5992C117.305 66.8766 117.099 70.2914 115.986 73.458C120.898 75.3342 124.998 78.8706 127.575 83.4537C130.153 88.0368 131.044 93.3774 130.096 98.5492C129.147 103.721 126.418 108.398 122.382 111.768C118.346 115.138 113.258 116.989 108 117H40.5001Z" stroke="#7C7CEB" stroke-width="5" stroke-linecap="round" stroke-linejoin="round"/>
</svg>
