<svg width="26" height="26" viewBox="0 0 26 26" fill="none" xmlns="http://www.w3.org/2000/svg">
<path d="M4.33331 13C4.33331 13.2873 4.21917 13.5629 4.01601 13.766C3.81284 13.9692 3.53729 14.0833 3.24997 14.0833C2.96266 14.0833 2.68711 13.9692 2.48394 13.766C2.28078 13.5629 2.16664 13.2873 2.16664 13C2.16321 10.9586 2.73761 8.95793 3.82344 7.22928C4.90927 5.50062 6.46219 4.11458 8.30265 3.23141C10.1431 2.34824 12.1959 2.00399 14.2238 2.23848C16.2517 2.47297 18.1718 3.27661 19.7621 4.5565V2.98783C19.7621 2.70051 19.8763 2.42496 20.0794 2.2218C20.2826 2.01864 20.5582 1.9045 20.8455 1.9045C21.1328 1.9045 21.4083 2.01864 21.6115 2.2218C21.8147 2.42496 21.9288 2.70051 21.9288 2.98783V7.32117C21.9288 7.60848 21.8147 7.88403 21.6115 8.0872C21.4083 8.29036 21.1328 8.4045 20.8455 8.4045H16.5121C16.2248 8.4045 15.9493 8.29036 15.7461 8.0872C15.5429 7.88403 15.4288 7.60848 15.4288 7.32117C15.4288 7.03385 15.5429 6.7583 15.7461 6.55513C15.9493 6.35197 16.2248 6.23783 16.5121 6.23783H18.4004C17.1276 5.21615 15.5917 4.57535 13.9701 4.38946C12.3486 4.20357 10.7076 4.48016 9.23653 5.1873C7.76551 5.89443 6.52452 7.00325 5.6569 8.38571C4.78928 9.76816 4.33042 11.3678 4.33331 13ZM22.75 11.9167C22.4627 11.9167 22.1871 12.0308 21.9839 12.234C21.7808 12.4371 21.6666 12.7127 21.6666 13C21.6695 14.6322 21.2107 16.2318 20.343 17.6143C19.4754 18.9967 18.2344 20.1056 16.7634 20.8127C15.2924 21.5198 13.6513 21.7964 12.0298 21.6105C10.4083 21.4246 8.87239 20.7839 7.59956 19.7622H9.48672C9.77404 19.7622 10.0496 19.648 10.2528 19.4449C10.4559 19.2417 10.5701 18.9661 10.5701 18.6788C10.5701 18.3915 10.4559 18.116 10.2528 17.9128C10.0496 17.7096 9.77404 17.5955 9.48672 17.5955H5.15339C4.86607 17.5955 4.59052 17.7096 4.38736 17.9128C4.18419 18.116 4.07006 18.3915 4.07006 18.6788V23.0122C4.07006 23.2995 4.18419 23.575 4.38736 23.7782C4.59052 23.9814 4.86607 24.0955 5.15339 24.0955C5.44071 24.0955 5.71626 23.9814 5.91942 23.7782C6.12259 23.575 6.23672 23.2995 6.23672 23.0122V21.4435C7.82717 22.7233 9.74733 23.5268 11.7752 23.7612C13.8031 23.9957 15.856 23.6514 17.6965 22.7683C19.5369 21.8851 21.0899 20.4992 22.1759 18.7706C23.2619 17.042 23.8365 15.0414 23.8333 13C23.8333 12.7127 23.7192 12.4371 23.516 12.234C23.3128 12.0308 23.0373 11.9167 22.75 11.9167Z" fill="#7C7CEB"/>
</svg>
