<svg width="31" height="31" viewBox="0 0 31 31" fill="none" xmlns="http://www.w3.org/2000/svg">
<path d="M18.0834 12.2708C18.0834 12.2708 18.7292 13.5625 18.7292 16.1458C18.7292 18.7292 18.0834 20.0208 18.0834 20.0208M12.9167 12.2708C12.9167 12.2708 12.2709 13.5625 12.2709 16.1458C12.2709 18.7292 12.9167 20.0208 12.9167 20.0208M7.75001 7.75C7.75001 15.3175 5.98182 25.8333 15.5 25.8333C25.0182 25.8333 23.25 15.3175 23.25 7.75M5.16669 7.75H25.8334M19.375 7.75V6.45833C19.375 4.16557 17.2602 3.875 15.5 3.875C13.7399 3.875 11.625 4.16557 11.625 6.45833V7.75" stroke="#7C7CEB" stroke-width="2" stroke-linecap="round" stroke-linejoin="round"/>
</svg>
